<svg width="20" height="20" viewBox="0 0 20 20" fill="none" xmlns="http://www.w3.org/2000/svg">
    <path fill-rule="evenodd" clip-rule="evenodd" d="M16.625 5.91a2.492 2.492 0 0 0-.732-1.801 2.503 2.503 0 0 0-3.196-.285.152.152 0 0 1-.145.016.152.152 0 0 1-.09-.114 2.477 2.477 0 0 0-.67-1.302A2.494 2.494 0 0 0 10 1.668a2.503 2.503 0 0 0-2.461 2.058.152.152 0 0 1-.09.114.152.152 0 0 1-.146-.016 2.48 2.48 0 0 0-1.394-.447 2.494 2.494 0 0 0-1.802.732 2.493 2.493 0 0 0-.732 1.8c0 .001 0 0 0 0a2.504 2.504 0 0 0 .448 1.395c.03.043.036.097.016.145a.152.152 0 0 1-.114.091 2.483 2.483 0 0 0-1.302.67A2.494 2.494 0 0 0 1.667 10a2.503 2.503 0 0 0 2.058 2.461c.05.01.094.043.114.09a.152.152 0 0 1-.016.146 2.476 2.476 0 0 0-.448 1.394 2.494 2.494 0 0 0 .732 1.802 2.505 2.505 0 0 0 3.196.285.152.152 0 0 1 .145-.017c.048.02.082.063.09.114a2.48 2.48 0 0 0 .67 1.302c.454.466 1.09.756 1.792.756s1.337-.29 1.791-.756a2.502 2.502 0 0 0 .67-1.302.152.152 0 0 1 .09-.114.152.152 0 0 1 .146.016 2.484 2.484 0 0 0 1.394.448 2.494 2.494 0 0 0 1.802-.732 2.503 2.503 0 0 0 .285-3.196.152.152 0 0 1-.017-.145.152.152 0 0 1 .114-.09 2.476 2.476 0 0 0 1.302-.67c.466-.454.756-1.09.756-1.792a2.493 2.493 0 0 0-.756-1.791 2.503 2.503 0 0 0-1.302-.67.152.152 0 0 1-.114-.09.152.152 0 0 1 .016-.146 2.484 2.484 0 0 0 .448-1.394zm-1.911-.623a.834.834 0 0 0-1.064-.096 1.819 1.819 0 0 1-2.83-1.172.834.834 0 0 0-1.64 0A1.819 1.819 0 0 1 6.35 5.19a.834.834 0 0 0-1.16 1.16 1.819 1.819 0 0 1-1.173 2.83.834.834 0 0 0 0 1.64 1.819 1.819 0 0 1 1.173 2.83.834.834 0 0 0 1.16 1.16 1.819 1.819 0 0 1 2.83 1.173.834.834 0 0 0 1.64 0 1.819 1.819 0 0 1 2.83-1.173.834.834 0 0 0 1.16-1.16 1.819 1.819 0 0 1 1.172-2.83.834.834 0 0 0 0-1.64 1.819 1.819 0 0 1-1.172-2.83.834.834 0 0 0-.096-1.064z" fill="#777E91"/>
    <path fill-rule="evenodd" clip-rule="evenodd" d="M10 11.668a1.667 1.667 0 1 0 0-3.334 1.667 1.667 0 0 0 0 3.334zm0 1.666a3.333 3.333 0 1 0 0-6.666 3.333 3.333 0 0 0 0 6.666z" fill="#777E91"/>
</svg>
