<svg width="20" height="20" viewBox="0 0 20 20" fill="fill-current" xmlns="http://www.w3.org/2000/svg">
    <path fill-rule="evenodd" clip-rule="evenodd" d="M16.666 4.167H3.333A.833.833 0 0 0 2.5 5v10c0 .46.373.833.833.833h13.333c.46 0 .834-.373.834-.833V5a.833.833 0 0 0-.834-.833zM3.333 2.5A2.5 2.5 0 0 0 .833 5v10a2.5 2.5 0 0 0 2.5 2.5h13.333a2.5 2.5 0 0 0 2.5-2.5V5a2.5 2.5 0 0 0-2.5-2.5H3.333z" />
    <path fill-rule="evenodd" clip-rule="evenodd" d="M4.36 6.133a.833.833 0 0 1 1.174-.107l3.933 3.278a.833.833 0 0 0 1.067 0l3.933-3.278a.833.833 0 1 1 1.067 1.28L11.6 10.585a2.5 2.5 0 0 1-3.201 0L4.467 7.307a.833.833 0 0 1-.107-1.174z" />
</svg>
