<svg width="20" height="20" viewBox="0 0 20 20" fill="none" xmlns="http://www.w3.org/2000/svg">
    <g clip-path="url(#09cqui7wxa)" fill-rule="evenodd" clip-rule="evenodd" fill="#777E91">
        <path d="M7.499 8.368a.833.833 0 0 1-.788.876c-.627.034-1.124.074-1.512.115-.522.055-.838.376-.891.836-.076.662-.141 1.662-.141 3.14 0 1.476.065 2.477.141 3.139.053.46.369.78.89.835.911.096 2.418.192 4.802.192 2.384 0 3.891-.096 4.803-.192.52-.055.836-.374.889-.835.076-.662.141-1.663.141-3.14 0-1.476-.065-2.477-.141-3.139-.053-.46-.37-.78-.89-.836-.389-.04-.886-.081-1.513-.115a.833.833 0 1 1 .089-1.664c.652.035 1.178.078 1.598.122 1.237.13 2.224 1.008 2.372 2.304.084.739.152 1.805.152 3.328 0 1.524-.068 2.59-.152 3.329-.148 1.295-1.133 2.173-2.37 2.304-.985.104-2.552.2-4.978.2-2.426 0-3.993-.096-4.978-.2-1.237-.131-2.222-1.009-2.37-2.304-.084-.739-.152-1.805-.152-3.329 0-1.523.068-2.59.152-3.328C2.8 8.71 3.787 7.832 5.024 7.702c.42-.044.946-.087 1.598-.122a.833.833 0 0 1 .877.788z"/>
        <path d="M7.673 5.173a.833.833 0 1 1-1.179-1.178l2.917-2.917a.833.833 0 0 1 1.178 0l2.917 2.917a.833.833 0 1 1-1.179 1.178L10.833 3.68v7.989a.833.833 0 0 1-1.666 0V3.679L7.673 5.173z"/>
    </g>
    <defs>
        <clipPath id="09cqui7wxa">
            <path fill="#fff" transform="translate(0 .001)" d="M0 0h20v20H0z"/>
        </clipPath>
    </defs>
</svg>
