<svg width="20" height="20" viewBox="0 0 20 20" fill="fill-current" xmlns="http://www.w3.org/2000/svg">
    <path fill-rule="evenodd" clip-rule="evenodd" d="M15.833 4.167H4.167c-.92 0-1.667.746-1.667 1.666v8.334c0 .92.746 1.666 1.667 1.666h11.666c.92 0 1.667-.746 1.667-1.666V5.833c0-.92-.746-1.666-1.667-1.666zM4.167 2.5A3.333 3.333 0 0 0 .833 5.833v8.334A3.333 3.333 0 0 0 4.167 17.5h11.666a3.333 3.333 0 0 0 3.334-3.333V5.833A3.333 3.333 0 0 0 15.833 2.5H4.167z" />
    <path fill-rule="evenodd" clip-rule="evenodd" d="M10.833 10A4.167 4.167 0 0 1 15 5.833h3.333a.833.833 0 0 1 0 1.667H15a2.5 2.5 0 0 0 0 5h3.333a.833.833 0 0 1 0 1.667H15A4.167 4.167 0 0 1 10.833 10z" />
    <path d="M15.833 10a.833.833 0 1 1-1.666 0 .833.833 0 0 1 1.666 0z" />
</svg>
