<svg width="24" height="25" viewBox="0 0 24 25" class="fill-current" xmlns="http://www.w3.org/2000/svg">
    <path fill="#777e90" d="M21 19.02a.884.884 0 0 1-.884.883H3.884a.884.884 0 0 1 0-1.767H3.9v-6.159c0-4.408 3.627-7.98 8.1-7.98s8.1 3.572 8.1 7.98v6.159h.016c.488 0 .884.395.884.883zm-15.3-.884h12.6v-6.159c0-3.432-2.82-6.213-6.3-6.213s-6.3 2.781-6.3 6.213v6.159zm4.276 3.616c-.245-.495.222-.965.774-.965h2.5c.552 0 1.019.47.774.965a2.21 2.21 0 0 1-.433.597 2.271 2.271 0 0 1-1.591.647 2.271 2.271 0 0 1-1.591-.647 2.209 2.209 0 0 1-.433-.597z" />
</svg>
