<svg width="24" height="25" viewBox="0 0 24 25" fill="none" xmlns="http://www.w3.org/2000/svg">
    <path d="m21.406 7.082-9-4a1.001 1.001 0 0 0-.813 0l-9 4c-.02.01-.034.024-.054.035-.028.014-.058.023-.084.04-.022.015-.039.034-.06.05a.87.87 0 0 0-.19.194c-.02.028-.041.053-.059.081a1.119 1.119 0 0 0-.076.165c-.009.027-.023.052-.031.08a1.013 1.013 0 0 0-.039.27v10c0 .395.232.752.594.913l9 4c.13.058.268.086.406.086a.997.997 0 0 0 .402-.096l.004.01 9-4a.999.999 0 0 0 .594-.914v-10a.999.999 0 0 0-.594-.914zM12 5.092l6.538 2.904L12 10.901l-1.308-.58-5.229-2.325L12 5.091zM4 17.346V9.535l7 3.111v7.811l-7-3.11zm9 3.11v-7.81l7-3.112v7.812l-7 3.11z" fill="#B1B5C4"/>
</svg>
