<svg width="36" height="37" viewBox="0 0 36 37" class="fill-current" xmlns="http://www.w3.org/2000/svg">
    <path fill="#3772FF" d="M19.5 29.496v-6H24l-6-7.5-6 7.5h4.5v6h3z" />
    <path fill="#3772FF" d="M10.5 29.496h3v-3h-3a4.505 4.505 0 0 1-4.5-4.5c0-2.106 1.798-4.134 4.01-4.522l.871-.153.288-.837c1.054-3.077 3.673-4.988 6.831-4.988 4.136 0 7.5 3.365 7.5 7.5v1.5H27c1.654 0 3 1.346 3 3 0 1.655-1.346 3-3 3h-4.5v3H27c3.309 0 6-2.69 6-6 0-2.82-1.957-5.193-4.584-5.832C27.761 12.501 23.34 8.496 18 8.496c-4.134 0-7.725 2.417-9.364 6.225C5.414 15.684 3 18.726 3 21.996c0 4.136 3.364 7.5 7.5 7.5z" />
</svg>
