<svg width="16" height="16" viewBox="0 0 16 16" class="fill-current" xmlns="http://www.w3.org/2000/svg">
    <path fill="#fff" fill-rule="evenodd" clip-rule="evenodd" d="M12.667 4H3.334a.667.667 0 0 0-.667.667v8c0 .368.299.666.667.666h9.333a.667.667 0 0 0 .667-.666v-8A.667.667 0 0 0 12.667 4zM3.334 2.667a2 2 0 0 0-2 2v8a2 2 0 0 0 2 2h9.333a2 2 0 0 0 2-2v-8a2 2 0 0 0-2-2H3.334z" />
    <path fill="#fff" fill-rule="evenodd" clip-rule="evenodd" d="M6.667 8a.667.667 0 0 0 0 1.333h4.666a.667.667 0 1 0 0-1.333H6.667zm-2 2.667a.667.667 0 1 0 0 1.333h4a.667.667 0 0 0 0-1.333h-4zM4.667 1.333A.667.667 0 0 0 4 2v2.667a.667.667 0 0 0 1.333 0V2a.667.667 0 0 0-.666-.667zm6.666 0a.667.667 0 0 0-.666.667v2.667a.667.667 0 1 0 1.333 0V2a.667.667 0 0 0-.667-.667z" />
</svg>
