<svg width="32" height="32" viewBox="0 0 32 32" class="fill-current" xmlns="http://www.w3.org/2000/svg">
    <path fill-rule="evenodd" clip-rule="evenodd" d="M4 6.667a5.333 5.333 0 0 1 5.333-5.333h11.124c1.415 0 2.772.561 3.772 1.562l2.209 2.209c1 1 1.562 2.356 1.562 3.771v16.457a5.333 5.333 0 0 1-5.333 5.334H9.333A5.333 5.333 0 0 1 4 25.333V6.668zm21.333 4v14.667A2.667 2.667 0 0 1 22.667 28H9.333a2.667 2.667 0 0 1-2.666-2.666V6.666A2.667 2.667 0 0 1 9.333 4h9.334v2.667a4 4 0 0 0 4 4h2.666zM25.185 8a2.666 2.666 0 0 0-.633-1.01l-2.209-2.209a2.666 2.666 0 0 0-1.01-.633v2.519c0 .736.597 1.333 1.334 1.333h2.518z" fill="#364237"/>
    <path d="M12 16a1.333 1.333 0 0 0 0 2.667h8A1.333 1.333 0 0 0 20 16h-8zM12 21.333A1.333 1.333 0 0 0 12 24h4a1.333 1.333 0 1 0 0-2.667h-4z" fill="364237"/>
</svg>
