<svg width="16" height="17" viewBox="0 0 16 17" class="fill-current"  xmlns="http://www.w3.org/2000/svg">
    <path fill-rule="evenodd" clip-rule="evenodd" d="M8 14.33A5.333 5.333 0 1 0 8 3.662a5.333 5.333 0 0 0 0 10.666zm0 1.333A6.667 6.667 0 1 0 8 2.33a6.667 6.667 0 0 0 0 13.333z" fill="#777E91"/>
    <path fill-rule="evenodd" clip-rule="evenodd" d="M8 5.663a.667.667 0 1 0 0 1.333.667.667 0 0 0 0-1.333zm0 2.666a.667.667 0 0 0-.667.667v2.667a.667.667 0 0 0 1.333 0V8.996A.667.667 0 0 0 8 8.33z" fill="#777E91"/>
</svg>
