<svg width="20" height="20" viewBox="0 0 20 20" fill="none" xmlns="http://www.w3.org/2000/svg">
<path fill="#58bd7d" fill-rule="evenodd" clip-rule="evenodd" d="M13.3412 11.0001C13.476 10.7451 13.6679 10.5249 13.8998 10.3565C13.0107 8.33014 11.6244 6.57141 9.89524 5.23472C9.57847 5.47942 9.18124 5.625 8.75 5.625C8.67081 5.625 8.59277 5.62009 8.51616 5.61056C8.29202 5.9534 8.07324 6.30886 7.86114 6.67622C7.35229 7.55757 6.87578 8.48861 6.44716 9.43271C6.5949 9.61182 6.71002 9.81883 6.78346 10.0447C9.03183 10.1575 11.2243 10.4825 13.3412 11.0001ZM6.89244 3.49318C6.88094 3.57714 6.875 3.66288 6.875 3.75C6.875 4.25194 7.07223 4.70782 7.39343 5.04435C7.18299 5.37048 6.97774 5.70631 6.77861 6.05122C6.27422 6.92485 5.79926 7.84723 5.36825 8.78615C5.24918 8.76244 5.12604 8.75 5 8.75C4.16702 8.75 3.46091 9.29318 3.21654 10.0447C2.13268 10.0991 1.06181 10.2028 0.00613379 10.3536C0.00205585 10.2362 0 10.1183 0 10C0 7.05454 1.27345 4.40651 3.29982 2.57644C4.55934 2.71241 5.76545 3.02656 6.89244 3.49318ZM9.65679 2.10846C9.38805 1.95969 9.07892 1.875 8.75 1.875C8.2553 1.875 7.80534 2.06659 7.47028 2.37961C6.58502 2.00518 5.65443 1.71691 4.68905 1.52532C6.22794 0.558887 8.0487 0 10 0C10.6153 0 11.2177 0.0555785 11.8023 0.161988C11.0847 0.693213 10.3613 1.3477 9.65679 2.10846ZM10.5753 4.18086C10.6078 4.04252 10.625 3.89827 10.625 3.75C10.625 3.50231 10.577 3.26584 10.4897 3.04939C11.2778 2.18626 12.0827 1.47616 12.8591 0.943388C13.0471 0.814375 13.229 0.698392 13.4047 0.594568C15.018 1.17868 16.4381 2.16605 17.5434 3.4349C17.5395 3.50212 17.5348 3.57042 17.5294 3.63982C17.3863 5.47601 16.7101 7.74584 15.4887 10.0643C15.3666 10.0315 15.2397 10.0106 15.1091 10.0031C14.1245 7.68836 12.5504 5.68477 10.5753 4.18086ZM13.1612 12.2434C11.0935 11.7299 8.95045 11.4071 6.75187 11.2947C6.51064 11.9253 5.93866 12.3924 5.24813 12.4837C4.97497 13.3101 4.75289 14.1156 4.59282 14.8746C4.32436 16.1476 4.24717 17.2124 4.34941 17.9941C4.36327 18.1 4.37974 18.1967 4.39827 18.285C4.90679 18.6295 5.44871 18.9284 6.01816 19.1758C6.12448 19.1493 6.23876 19.1162 6.36144 19.0754C7.18145 18.8024 8.1738 18.2479 9.2408 17.443C10.7342 16.3165 12.2694 14.7791 13.5627 13.0792C13.3647 12.843 13.2237 12.5573 13.1612 12.2434ZM4.01825 12.2227C3.66948 12.008 3.39636 11.6822 3.24813 11.2947C2.19432 11.3486 1.15328 11.4508 0.127179 11.5992C0.477949 13.7816 1.53495 15.7279 3.05632 17.1962C3.06779 15.7867 3.42482 14.0481 4.01825 12.2227ZM14.6476 13.7169C12.6546 16.3696 10.0979 18.656 7.89373 19.7778C8.5728 19.9234 9.27745 20 10 20C11.6553 20 13.2167 19.5978 14.5918 18.8858C14.8583 17.8432 15 16.7507 15 15.625C15 14.9868 14.9544 14.3592 14.8664 13.7453C14.7922 13.7401 14.7191 13.7305 14.6476 13.7169ZM16.0801 13.4079C16.1919 14.1305 16.25 14.871 16.25 15.625C16.25 16.4178 16.1858 17.1956 16.0624 17.9535C17.3209 16.9927 18.3447 15.7401 19.0325 14.2965C18.1509 13.8929 17.2488 13.5262 16.3284 13.1983C16.2519 13.275 16.1688 13.3452 16.0801 13.4079ZM16.8657 12.0626C17.7609 12.3851 18.6391 12.7431 19.4988 13.1349C19.824 12.1489 20 11.095 20 10C20 8.15113 19.4982 6.41945 18.6235 4.9337C18.3112 6.7353 17.6053 8.75882 16.5232 10.7814C16.7446 11.0892 16.875 11.4669 16.875 11.875C16.875 11.9383 16.8719 12.0009 16.8657 12.0626Z" />
</svg>
