<svg width="20" height="20" viewBox="0 0 20 20" class="fill-current" xmlns="http://www.w3.org/2000/svg">
    <path fill="#777e90" fill-rule="evenodd" clip-rule="evenodd" d="M14.786 6.667h-9.57c-.962 0-1.724.81-1.664 1.77l.417 6.667a1.667 1.667 0 0 0 1.663 1.563h8.737c.88 0 1.608-.685 1.663-1.563l.417-6.667c.06-.96-.702-1.77-1.663-1.77zM5.216 5a3.333 3.333 0 0 0-3.328 3.541l.417 6.667a3.333 3.333 0 0 0 3.327 3.125h8.737a3.333 3.333 0 0 0 3.327-3.125l.416-6.667A3.333 3.333 0 0 0 14.787 5h-9.57z" />
    <path fill="#777e90" fill-rule="evenodd" clip-rule="evenodd" d="M5.833 5.833a4.167 4.167 0 1 1 8.333 0V7.5a.833.833 0 0 1-1.666 0V5.833a2.5 2.5 0 0 0-5 0V7.5a.833.833 0 0 1-1.667 0V5.833z" />
</svg>
