<?xml version="1.0" encoding="utf-8"?>
<!-- Generator: Adobe Illustrator 26.0.2, SVG Export Plug-In . SVG Version: 6.00 Build 0)  -->
<svg version="1.1" id="Capa_1" xmlns="http://www.w3.org/2000/svg" xmlns:xlink="http://www.w3.org/1999/xlink" x="0px" y="0px"
	 viewBox="0 0 931.77 160.88" style="enable-background:new 0 0 931.77 160.88;" xml:space="preserve">
<style type="text/css">
	.st0{fill:#FFFFFF;}
</style>
<path class="st0" d="M52.41,0C23.51,0,0,23.51,0,52.41c0,2.84,0.24,5.63,0.68,8.35h17.57c-0.66-2.68-1.01-5.47-1.01-8.35
	c0-19.39,15.78-35.17,35.17-35.17c19.39,0,35.17,15.78,35.17,35.17c0,2.88-0.35,5.67-1.01,8.35h17.57c0.44-2.72,0.68-5.51,0.68-8.35
	C104.81,23.51,81.3,0,52.41,0z"/>
<path class="st0" d="M101.98,69.38H83.2c-4.65,8.4-12.64,14.71-22.17,17.12V69.38H43.79V86.5c-9.53-2.41-17.52-8.72-22.17-17.12
	H2.83C9,87.34,24.65,100.92,43.79,104.1v15.74c-18.19,3.96-31.85,20.18-31.85,39.54h17.24c0-12.81,10.42-23.23,23.23-23.23
	s23.23,10.42,23.23,23.23h17.24c0-19.36-13.66-35.58-31.85-39.54V104.1C80.16,100.92,95.82,87.34,101.98,69.38z"/>
<polygon class="st0" points="871.93,91.14 881.38,91.14 881.38,116.23 887.26,116.23 887.26,91.14 896.71,91.14 896.71,86.2 
	871.93,86.2 "/>
<path class="st0" d="M923.27,86.2l-6.61,22.89h-0.11l-6.51-22.89h-8.4v30.03h5.35V93.24h0.21c0,0,1.26,5.04,2.31,8.5l4.3,14.49h5.56
	l4.3-14.49c1.15-3.78,2.41-8.5,2.41-8.5h0.21v22.99h5.46V86.2H923.27z"/>
<path class="st0" d="M157.08,122.79c0-16.79,11.78-26.32,26.52-26.32c6.76,0,14.23,2.05,21.4,6.35V90.33
	c-7.47-3.79-15.15-5.63-22.42-5.63c-20.58,0-37.99,14.34-37.99,38.09c0,23.76,17.41,38.09,37.99,38.09c7.99,0,15.56-1.74,22.94-5.53
	v-12.39c-7.07,4.2-14.44,6.14-21.91,6.14C168.85,149.11,157.08,139.58,157.08,122.79z"/>
<polygon class="st0" points="233.46,86.13 220.87,86.13 220.87,159.35 269.81,159.35 269.81,147.78 233.46,147.78 "/>
<rect x="282.92" y="86.13" class="st0" width="12.59" height="73.21"/>
<polygon class="st0" points="351.73,139.28 331.25,86.13 314.97,86.13 314.97,159.35 327.57,159.35 327.57,108.35 346.61,159.35 
	356.85,159.35 375.9,108.35 375.9,159.35 388.49,159.35 388.49,86.13 372.21,86.13 "/>
<path class="st0" d="M427.5,86.13l-26.32,73.21h13.41l6.38-18.84h26.55l6.18,18.84h13.41l-25.7-73.21H427.5z M424.79,129.24
	l9.67-28.57l9.37,28.57H424.79z"/>
<polygon class="st0" points="467.23,97.7 490.38,97.7 490.38,159.35 502.97,159.35 502.97,97.7 526.11,97.7 526.11,86.13 
	467.23,86.13 "/>
<polygon class="st0" points="551.81,127.91 586.22,127.91 586.22,116.34 551.81,116.34 551.81,97.7 592.46,97.7 592.46,86.13 
	539.22,86.13 539.22,159.35 593.28,159.35 593.28,147.78 551.81,147.78 "/>
<path class="st0" d="M616.01,122.79c0-16.79,11.78-26.32,26.52-26.32c6.76,0,14.23,2.05,21.4,6.35V90.33
	c-7.47-3.79-15.15-5.63-22.42-5.63c-20.58,0-37.99,14.34-37.99,38.09c0,23.76,17.41,38.09,37.99,38.09c7.99,0,15.56-1.74,22.94-5.53
	v-12.39c-7.07,4.2-14.44,6.14-21.91,6.14C627.79,149.11,616.01,139.58,616.01,122.79z"/>
<path class="st0" d="M711.96,84.7c-22.02,0-37.89,15.97-37.89,38.09s15.87,38.09,37.89,38.09c22.02,0,37.89-15.97,37.89-38.09
	S733.97,84.7,711.96,84.7z M711.96,149.11c-14.75,0-25.39-11.06-25.39-26.32c0-15.26,10.65-26.32,25.39-26.32
	c14.74,0,25.39,11.06,25.39,26.32C737.35,138.05,726.7,149.11,711.96,149.11z"/>
<rect x="764.69" y="86.13" class="st0" width="12.59" height="73.21"/>
<polygon class="st0" points="845.07,137.33 809.75,86.13 796.74,86.13 796.74,159.35 809.34,159.35 809.44,107.64 844.97,159.35 
	857.77,159.35 857.77,86.13 845.18,86.13 "/>
</svg>
