<svg width="264" height="48" viewBox="0 0 264 48" fill="none" xmlns="http://www.w3.org/2000/svg">
<path fill-rule="evenodd" clip-rule="evenodd" d="M19.9458 1.0313C22.4737 -0.343768 25.5263 -0.343768 28.0543 1.0313L42.7096 9.00307C45.4403 10.4884 47.1401 13.348 47.1401 16.4565V31.5435C47.1401 34.652 45.4403 37.5116 42.7096 38.9969L28.0543 46.9687C25.5263 48.3438 22.4737 48.3438 19.9458 46.9687L5.29039 38.9969C2.55976 37.5116 0.859955 34.652 0.859955 31.5435L0.859955 16.4565C0.859955 13.348 2.55976 10.4884 5.29039 9.00307L19.9458 1.0313Z" fill="#3772FF"/>
<g filter="url(#filter0_d_4_3498)">
<path fill-rule="evenodd" clip-rule="evenodd" d="M19.7083 32.5002C14.1855 32.5002 9.70831 28.0231 9.70831 22.5002C9.70831 16.9774 14.1855 12.5002 19.7083 12.5002C23.9331 12.5002 27.5461 15.1202 29.0109 18.824C29.7194 18.5837 30.4787 18.4534 31.2684 18.4534C35.1473 18.4534 38.2917 21.5978 38.2917 25.4767C38.2917 29.3556 35.1473 32.5001 31.2684 32.5001H31.2679L31.2684 32.5003H21.0157C20.8638 32.5003 20.7133 32.488 20.5656 32.464C20.283 32.488 19.9971 32.5002 19.7083 32.5002ZM26.055 30.2285C26.0629 30.222 26.0707 30.2155 26.0786 30.209C26.0938 30.2257 26.1091 30.2423 26.1245 30.2588L26.055 30.2285Z" fill="url(#paint0_linear_4_3498)"/>
</g>
<path d="M20.3041 1.69014C22.6086 0.436619 25.3914 0.436619 27.6959 1.69014L42.3513 9.66191C44.8405 11.0159 46.3901 13.6228 46.3901 16.4565V31.5435C46.3901 34.3772 44.8405 36.9841 42.3513 38.3381L27.6959 46.3099C25.3914 47.5634 22.6086 47.5634 20.3041 46.3099L5.64876 38.3381C3.15951 36.9841 1.60995 34.3772 1.60995 31.5435V16.4565C1.60995 13.6228 3.15951 11.0159 5.64876 9.66191L20.3041 1.69014Z" stroke="url(#paint1_linear_4_3498)" stroke-width="1.5"/>
<path d="M73.482 38.54C70.89 38.54 68.67 37.976 66.822 36.848C64.974 35.708 63.552 34.124 62.556 32.096C61.572 30.068 61.08 27.716 61.08 25.04C61.08 22.364 61.572 20.012 62.556 17.984C63.552 15.956 64.974 14.378 66.822 13.25C68.67 12.11 70.89 11.54 73.482 11.54C76.47 11.54 78.96 12.29 80.952 13.79C82.944 15.278 84.342 17.288 85.146 19.82L80.772 21.026C80.268 19.334 79.41 18.014 78.198 17.066C76.986 16.106 75.414 15.626 73.482 15.626C71.742 15.626 70.29 16.016 69.126 16.796C67.974 17.576 67.104 18.674 66.516 20.09C65.94 21.494 65.646 23.144 65.634 25.04C65.634 26.936 65.922 28.592 66.498 30.008C67.086 31.412 67.962 32.504 69.126 33.284C70.29 34.064 71.742 34.454 73.482 34.454C75.414 34.454 76.986 33.974 78.198 33.014C79.41 32.054 80.268 30.734 80.772 29.054L85.146 30.26C84.342 32.792 82.944 34.808 80.952 36.308C78.96 37.796 76.47 38.54 73.482 38.54ZM88.7381 38V11.54H93.0761V38H88.7381ZM98.108 15.608V11.63H102.446V15.608H98.108ZM98.108 38V18.56H102.446V38H98.108ZM130.464 38V26.192C130.464 24.86 130.134 23.822 129.474 23.078C128.814 22.322 127.92 21.944 126.792 21.944C126.096 21.944 125.472 22.106 124.92 22.43C124.368 22.742 123.93 23.21 123.606 23.834C123.282 24.446 123.12 25.178 123.12 26.03L121.194 24.896C121.182 23.552 121.482 22.37 122.094 21.35C122.718 20.318 123.558 19.514 124.614 18.938C125.67 18.362 126.846 18.074 128.142 18.074C130.29 18.074 131.934 18.722 133.074 20.018C134.226 21.302 134.802 22.994 134.802 25.094V38H130.464ZM107.082 38V18.56H110.916V24.59H111.456V38H107.082ZM118.8 38V26.246C118.8 24.89 118.47 23.834 117.81 23.078C117.15 22.322 116.25 21.944 115.11 21.944C114.006 21.944 113.118 22.322 112.446 23.078C111.786 23.834 111.456 24.818 111.456 26.03L109.512 24.734C109.512 23.474 109.824 22.34 110.448 21.332C111.072 20.324 111.912 19.532 112.968 18.956C114.036 18.368 115.23 18.074 116.55 18.074C118.002 18.074 119.214 18.386 120.186 19.01C121.17 19.622 121.902 20.462 122.382 21.53C122.874 22.586 123.12 23.78 123.12 25.112V38H118.8ZM144.213 38.54C142.809 38.54 141.621 38.276 140.649 37.748C139.677 37.208 138.939 36.494 138.435 35.606C137.943 34.718 137.697 33.74 137.697 32.672C137.697 31.736 137.853 30.896 138.165 30.152C138.477 29.396 138.957 28.748 139.605 28.208C140.253 27.656 141.093 27.206 142.125 26.858C142.905 26.606 143.817 26.378 144.861 26.174C145.917 25.97 147.057 25.784 148.281 25.616C149.517 25.436 150.807 25.244 152.151 25.04L150.603 25.922C150.615 24.578 150.315 23.588 149.703 22.952C149.091 22.316 148.059 21.998 146.607 21.998C145.731 21.998 144.885 22.202 144.069 22.61C143.253 23.018 142.683 23.72 142.359 24.716L138.399 23.474C138.879 21.83 139.791 20.51 141.135 19.514C142.491 18.518 144.315 18.02 146.607 18.02C148.335 18.02 149.853 18.302 151.161 18.866C152.481 19.43 153.459 20.354 154.095 21.638C154.443 22.322 154.653 23.024 154.725 23.744C154.797 24.452 154.833 25.226 154.833 26.066V38H151.035V33.788L151.665 34.472C150.789 35.876 149.763 36.908 148.587 37.568C147.423 38.216 145.965 38.54 144.213 38.54ZM145.077 35.084C146.061 35.084 146.901 34.91 147.597 34.562C148.293 34.214 148.845 33.788 149.253 33.284C149.673 32.78 149.955 32.306 150.099 31.862C150.327 31.31 150.453 30.68 150.477 29.972C150.513 29.252 150.531 28.67 150.531 28.226L151.863 28.622C150.555 28.826 149.433 29.006 148.497 29.162C147.561 29.318 146.757 29.468 146.085 29.612C145.413 29.744 144.819 29.894 144.303 30.062C143.799 30.242 143.373 30.452 143.025 30.692C142.677 30.932 142.407 31.208 142.215 31.52C142.035 31.832 141.945 32.198 141.945 32.618C141.945 33.098 142.065 33.524 142.305 33.896C142.545 34.256 142.893 34.544 143.349 34.76C143.817 34.976 144.393 35.084 145.077 35.084ZM170.193 38C168.909 38.24 167.649 38.342 166.413 38.306C165.189 38.282 164.091 38.06 163.119 37.64C162.147 37.208 161.409 36.53 160.905 35.606C160.461 34.766 160.227 33.908 160.203 33.032C160.179 32.156 160.167 31.166 160.167 30.062V13.16H164.487V29.81C164.487 30.59 164.493 31.274 164.505 31.862C164.529 32.45 164.655 32.93 164.883 33.302C165.315 34.022 166.005 34.424 166.953 34.508C167.901 34.592 168.981 34.544 170.193 34.364V38ZM156.639 21.962V18.56H170.193V21.962H156.639ZM181.507 38.54C179.539 38.54 177.811 38.114 176.323 37.262C174.835 36.41 173.671 35.228 172.831 33.716C172.003 32.204 171.589 30.464 171.589 28.496C171.589 26.372 171.997 24.53 172.813 22.97C173.629 21.398 174.763 20.18 176.215 19.316C177.667 18.452 179.347 18.02 181.255 18.02C183.271 18.02 184.981 18.494 186.385 19.442C187.801 20.378 188.851 21.704 189.535 23.42C190.219 25.136 190.477 27.158 190.309 29.486H186.007V27.902C185.995 25.79 185.623 24.248 184.891 23.276C184.159 22.304 183.007 21.818 181.435 21.818C179.659 21.818 178.339 22.37 177.475 23.474C176.611 24.566 176.179 26.168 176.179 28.28C176.179 30.248 176.611 31.772 177.475 32.852C178.339 33.932 179.599 34.472 181.255 34.472C182.323 34.472 183.241 34.238 184.009 33.77C184.789 33.29 185.389 32.6 185.809 31.7L190.093 32.996C189.349 34.748 188.197 36.11 186.637 37.082C185.089 38.054 183.379 38.54 181.507 38.54ZM174.811 29.486V26.21H188.185V29.486H174.811ZM202.047 38.54C200.043 38.54 198.333 38.096 196.917 37.208C195.501 36.308 194.415 35.084 193.659 33.536C192.915 31.988 192.537 30.236 192.525 28.28C192.537 26.288 192.927 24.524 193.695 22.988C194.475 21.44 195.579 20.228 197.007 19.352C198.435 18.464 200.133 18.02 202.101 18.02C204.309 18.02 206.175 18.578 207.699 19.694C209.235 20.798 210.237 22.31 210.705 24.23L206.385 25.4C206.049 24.356 205.491 23.546 204.711 22.97C203.931 22.382 203.043 22.088 202.047 22.088C200.919 22.088 199.989 22.358 199.257 22.898C198.525 23.426 197.985 24.158 197.637 25.094C197.289 26.03 197.115 27.092 197.115 28.28C197.115 30.128 197.529 31.622 198.357 32.762C199.185 33.902 200.415 34.472 202.047 34.472C203.199 34.472 204.105 34.208 204.765 33.68C205.437 33.152 205.941 32.39 206.277 31.394L210.705 32.384C210.105 34.364 209.055 35.888 207.555 36.956C206.055 38.012 204.219 38.54 202.047 38.54ZM221.651 38.54C219.707 38.54 218.009 38.102 216.557 37.226C215.105 36.35 213.977 35.144 213.173 33.608C212.381 32.06 211.985 30.284 211.985 28.28C211.985 26.24 212.393 24.452 213.209 22.916C214.025 21.38 215.159 20.18 216.611 19.316C218.063 18.452 219.743 18.02 221.651 18.02C223.607 18.02 225.311 18.458 226.763 19.334C228.215 20.21 229.343 21.422 230.147 22.97C230.951 24.506 231.353 26.276 231.353 28.28C231.353 30.296 230.945 32.078 230.129 33.626C229.325 35.162 228.197 36.368 226.745 37.244C225.293 38.108 223.595 38.54 221.651 38.54ZM221.651 34.472C223.379 34.472 224.663 33.896 225.503 32.744C226.343 31.592 226.763 30.104 226.763 28.28C226.763 26.396 226.337 24.896 225.485 23.78C224.633 22.652 223.355 22.088 221.651 22.088C220.487 22.088 219.527 22.352 218.771 22.88C218.027 23.396 217.475 24.122 217.115 25.058C216.755 25.982 216.575 27.056 216.575 28.28C216.575 30.164 217.001 31.67 217.853 32.798C218.717 33.914 219.983 34.472 221.651 34.472ZM234.959 15.608V11.63H239.297V15.608H234.959ZM234.959 38V18.56H239.297V38H234.959ZM257.414 38V28.64C257.414 28.028 257.372 27.35 257.288 26.606C257.204 25.862 257.006 25.148 256.694 24.464C256.394 23.768 255.938 23.198 255.326 22.754C254.726 22.31 253.91 22.088 252.878 22.088C252.326 22.088 251.78 22.178 251.24 22.358C250.7 22.538 250.208 22.85 249.764 23.294C249.332 23.726 248.984 24.326 248.72 25.094C248.456 25.85 248.324 26.822 248.324 28.01L245.75 26.912C245.75 25.256 246.068 23.756 246.704 22.412C247.352 21.068 248.3 20 249.548 19.208C250.796 18.404 252.332 18.002 254.156 18.002C255.596 18.002 256.784 18.242 257.72 18.722C258.656 19.202 259.4 19.814 259.952 20.558C260.504 21.302 260.912 22.094 261.176 22.934C261.44 23.774 261.608 24.572 261.68 25.328C261.764 26.072 261.806 26.678 261.806 27.146V38H257.414ZM243.932 38V18.56H247.802V24.59H248.324V38H243.932Z" fill="#F4F5F6"/>
<defs>
<filter id="filter0_d_4_3498" x="3.70831" y="9.50024" width="40.5834" height="32" filterUnits="userSpaceOnUse" color-interpolation-filters="sRGB">
<feFlood flood-opacity="0" result="BackgroundImageFix"/>
<feColorMatrix in="SourceAlpha" type="matrix" values="0 0 0 0 0 0 0 0 0 0 0 0 0 0 0 0 0 0 127 0" result="hardAlpha"/>
<feOffset dy="3"/>
<feGaussianBlur stdDeviation="3"/>
<feColorMatrix type="matrix" values="0 0 0 0 0 0 0 0 0 0 0 0 0 0 0 0 0 0 0.15 0"/>
<feBlend mode="normal" in2="BackgroundImageFix" result="effect1_dropShadow_4_3498"/>
<feBlend mode="normal" in="SourceGraphic" in2="effect1_dropShadow_4_3498" result="shape"/>
</filter>
<linearGradient id="paint0_linear_4_3498" x1="15.6534" y1="13.6875" x2="27.7877" y2="32.4106" gradientUnits="userSpaceOnUse">
<stop stop-color="white"/>
<stop offset="1" stop-color="#FCFCFD" stop-opacity="0.75"/>
</linearGradient>
<linearGradient id="paint1_linear_4_3498" x1="24" y1="0" x2="24" y2="48" gradientUnits="userSpaceOnUse">
<stop stop-color="#7EA4FF" stop-opacity="0.27"/>
<stop offset="1" stop-color="#1448C4" stop-opacity="0.42"/>
</linearGradient>
</defs>
</svg>
